<?xml version="1.0" standalone="yes"?>
<svg width="210" height="370">
<path style="fill:#ffffff; stroke:none;" d="M0 0L0 270L10 270L10 260L20 260L20 210L60 210L60 220L70 220L70 180L80 180L80 170L90 170L90 160L60 160L60 150L50 150L50 140L40 140L40 130L30 130L30 120L10 120L10 90L30 90L30 50L40 50L40 40L50 40L50 30L60 30L60 20L70 20L70 10L150 10L150 20L170 20L170 10L180 10L180 0L0 0z"/>
<path style="fill:#7d6b6b; stroke:none;" d="M180 0L180 10L170 10L170 30L160 30L160 20L150 20L150 10L70 10L70 20L60 20L60 30L50 30L50 40L40 40L40 50L30 50L30 60L110 60L110 70L120 70L120 80L130 80L130 90L140 90L140 100L190 100L190 50L180 50L180 40L200 40L200 30L210 30L210 10L200 10L200 0L180 0z"/>
<path style="fill:#ffffff; stroke:none;" d="M200 0L200 10L210 10L210 0L200 0z"/>
<path style="fill:#21017f; stroke:none;" d="M160 20L160 30L170 30L170 20L160 20M170 30L170 40L180 40L180 30L170 30z"/>
<path style="fill:#ffffff; stroke:none;" d="M200 30L200 40L190 40L190 130L180 130L180 140L170 140L170 150L160 150L160 160L130 160L130 170L140 170L140 180L150 180L150 170L160 170L160 160L170 160L170 170L180 170L180 320L140 320L140 330L130 330L130 320L100 320L100 330L90 330L90 320L50 320L50 330L40 330L40 340L50 340L50 370L90 370L90 360L70 360L70 350L60 350L60 330L70 330L70 340L80 340L80 350L100 350L100 360L130 360L130 350L150 350L150 340L160 340L160 330L170 330L170 350L160 350L160 360L140 360L140 370L210 370L210 30L200 30z"/>
<path style="fill:#21017f; stroke:none;" d="M180 40L180 50L190 50L190 40L180 40z"/>
<path style="fill:#010101; stroke:none;" d="M30 60L30 90L10 90L10 120L30 120L30 130L40 130L40 140L50 140L50 150L60 150L60 160L90 160L90 170L80 170L80 180L70 180L70 220L60 220L60 210L20 210L20 260L10 260L10 270L0 270L0 330L10 330L10 340L0 340L0 370L50 370L50 340L40 340L40 330L50 330L50 320L60 320L60 290L130 290L130 280L140 280L140 270L150 270L150 180L140 180L140 170L130 170L130 160L160 160L160 150L170 150L170 140L180 140L180 130L190 130L190 100L180 100L180 130L170 130L170 140L160 140L160 150L60 150L60 140L80 140L80 120L70 120L70 130L60 130L60 140L50 140L50 130L40 130L40 120L30 120L30 110L20 110L20 100L40 100L40 60L30 60z"/>
<path style="fill:#e7c393; stroke:none;" d="M40 60L40 100L20 100L20 110L30 110L30 120L40 120L40 130L50 130L50 140L60 140L60 130L70 130L70 120L80 120L80 100L50 100L50 80L70 80L70 90L80 90L80 80L90 80L90 90L100 90L100 100L120 100L120 110L140 110L140 90L130 90L130 80L120 80L120 70L110 70L110 60L40 60z"/>
<path style="fill:#3f5735; stroke:none;" d="M50 80L50 100L70 100L70 80L50 80z"/>
<path style="fill:#e5c193; stroke:none;" d="M80 80L80 90L70 90L70 100L80 100L80 140L60 140L60 150L160 150L160 140L170 140L170 130L180 130L180 100L140 100L140 110L120 110L120 100L100 100L100 90L90 90L90 80L80 80z"/>
<path style="fill:#7143ff; stroke:none;" d="M100 160L100 170L90 170L90 190L80 190L80 210L90 210L90 220L80 220L80 230L60 230L60 240L90 240L90 230L110 230L110 220L120 220L120 190L130 190L130 230L120 230L120 240L100 240L100 250L30 250L30 260L20 260L20 270L10 270L10 320L50 320L50 280L130 280L130 270L140 270L140 190L130 190L130 170L120 170L120 160L100 160z"/>
<path style="fill:#351901; stroke:none;" d="M160 160L160 170L150 170L150 290L60 290L60 320L90 320L90 330L100 330L100 320L130 320L130 330L140 330L140 320L180 320L180 170L170 170L170 160L160 160z"/>
<path style="fill:#512701; stroke:none;" d="M160 170L160 300L70 300L70 310L170 310L170 170L160 170z"/>
<path style="fill:#010101; stroke:none;" d="M100 180L100 190L90 190L90 210L100 210L100 190L120 190L120 180L100 180z"/>
<path style="fill:#e7c393; stroke:none;" d="M30 220L30 240L50 240L50 220L30 220z"/>
<path style="fill:#ffffff; stroke:none;" d="M140 270L140 280L130 280L130 290L150 290L150 270L140 270M0 330L0 340L10 340L10 330L0 330z"/>
<path style="fill:#e7c393; stroke:none;" d="M20 330L20 340L30 340L30 330L20 330z"/>
<path style="fill:#351901; stroke:none;" d="M60 330L60 350L70 350L70 360L90 360L90 370L140 370L140 360L160 360L160 350L170 350L170 330L160 330L160 340L150 340L150 350L130 350L130 360L100 360L100 350L80 350L80 340L70 340L70 330L60 330M80 330L80 340L90 340L90 330L80 330M140 330L140 340L150 340L150 330L140 330z"/>
<path style="fill:#01276b; stroke:none;" d="M10 350L10 360L40 360L40 350L10 350z"/>
</svg>
