<?xml version="1.0" encoding="utf-8"?>
<!-- Generator: Adobe Illustrator 15.1.0, SVG Export Plug-In . SVG Version: 6.00 Build 0)  -->
<!DOCTYPE svg PUBLIC "-//W3C//DTD SVG 1.1//EN" "http://www.w3.org/Graphics/SVG/1.1/DTD/svg11.dtd">
<svg version="1.1" id="Layer_1" xmlns="http://www.w3.org/2000/svg" xmlns:xlink="http://www.w3.org/1999/xlink" x="0px" y="0px"
	 width="200px" height="420px" viewBox="0 0 200 420" enable-background="new 0 0 200 420" xml:space="preserve">
<path fill="#010101" d="M20,0v10H10v10H0v110h10v10h10v10h60v10H40v10H20v110H10v40h30v50h10v10h10v10H50v30h50v-30H90v-10h30v10
	h-10v30h50v-30h-10v-20h10v-50h30v-40h-10V170h-20v-10h-40v-10h60v-10h10v-10h10V20h-10V10h-10V0H20z"/>
<path fill="#FFDBA3" d="M30,10v70H10v40h10v10h10v10h140v-10h10v-10h10V80h-20V10H30z"/>
<path fill="#8F8B8B" d="M20,20v10H10v50h20V20H20 M170,20v60h20V30h-10V20H170z"/>
<path fill="#5D9BFF" d="M50,50v20h20V50H50 M130,50v20h20V50H130z"/>
<path fill="#010101" d="M90,70v10h10v10H90v10h20V70H90 M80,110v10h40v-10H80z"/>
<path fill="#FFDBA3" d="M90,150v30h10v10h10v-10h10v-10h-10v-20H90z"/>
<path fill="#FFFFFF" d="M50,170v10H30v100h10v-30h10v30h50v-80H90v-10H80v-10H70v-10H50z"/>
<path fill="#673B01" d="M70,170v10h10v10h10v10h10v80H50v10h40v10H80v10H70v10h10v-10h10v-10h10v70h20v-70h10v10h10v10h10v-10h-10
	v-10h-10v-10h20v-10h-30v-90h10v-10h10v-10h-20v10h-10v10h-10v-10H90v-10H70z"/>
<path fill="#FFFFFF" d="M140,170v10h-10v10h-10v90h30v-30h10v30h10V180h-20v-10H140z"/>
<path fill="#673B01" d="M50,200v10h30v-10H50z"/>
<path fill="#FFDBA3" d="M20,290v20h20v-20H20z"/>
<path fill="#FFFFFF" d="M50,290v70h10v10h40v-70H90v10H80v10H70v-10h10v-10h10v-10H50 M130,290v10h10v10h10v-20H130z"/>
<path fill="#FFDBA3" d="M160,290v20h20v-20H160z"/>
<path fill="#FFFFFF" d="M120,300v70h20v-10h10v-40h-10v-10h-10v-10H120z"/>
<path fill="#FFDBA3" d="M70,380v10h10v-10H70z"/>
<path fill="#FFDBA3" d="M130,380v10h10v-10H130z"/>
<path fill="#772727" d="M60,400v10h30v-10H60 M120,400v10h30v-10H120z"/>
</svg>
