<?xml version="1.0" encoding="utf-8"?>
<!-- Generator: Adobe Illustrator 15.1.0, SVG Export Plug-In . SVG Version: 6.00 Build 0)  -->
<!DOCTYPE svg PUBLIC "-//W3C//DTD SVG 1.1//EN" "http://www.w3.org/Graphics/SVG/1.1/DTD/svg11.dtd">
<svg version="1.1" id="Layer_1" xmlns="http://www.w3.org/2000/svg" xmlns:xlink="http://www.w3.org/1999/xlink" x="0px" y="0px"
	 width="600px" height="220px" viewBox="0 0 600 220" enable-background="new 0 0 600 220" xml:space="preserve">
<path fill="#210D01" d="M530,0v40h10v140H60V80h10V40H0v40h10v140h50v-30h480v30h50V40h10V0H530z"/>
<path fill="#431B01" d="M540,10v20h10v180h30V30h10V10H540z"/>
<path fill="#431B01" d="M10,50v20h10v140h30V70h10V50H10z"/>
<path fill="#753B6D" d="M470,80v10h-10v20H60v10h480v-10h-70v-10h10V90h60V80H470z"/>
<path fill="#010101" d="M330,90v10h20V90H330z"/>
<path fill="#C16BD7" d="M480,90v10h-10v10h70V90H480z"/>
<path fill="#010101" d="M280,100v10h50v-10H280 M350,100v10h30v-10H350z"/>
<path fill="#C16BD7" d="M60,120v60h480v-60H60z"/>
<path fill="#FFFFFF" d="M330,100v10h20v-10H330z"/>
</svg>
