<?xml version="1.0" encoding="utf-8"?>
<!-- Generator: Adobe Illustrator 15.1.0, SVG Export Plug-In . SVG Version: 6.00 Build 0)  -->
<!DOCTYPE svg PUBLIC "-//W3C//DTD SVG 1.1//EN" "http://www.w3.org/Graphics/SVG/1.1/DTD/svg11.dtd">
<svg version="1.1" id="Layer_1" xmlns="http://www.w3.org/2000/svg" xmlns:xlink="http://www.w3.org/1999/xlink" x="0px" y="0px"
	 width="3440px" height="810px" viewBox="0 0 3440 810" enable-background="new 0 0 3440 810" xml:space="preserve">
<path fill="#FFF199" d="M0,0v580h380v-10h10v-10h10v10h50v10h530v-10h10v-10h10v10h50v10h2390v-20h-10v-20h10v-10h-10v-20h10V380
	h-10v-20h10v-10h-10V180h10v-10h-10V20h10V0H1770v10h-60v10h-20V10h10V0H640v170h-10V0H40v170H30V0H0z"/>
<path fill="#FFF197" d="M30,0v150h10V0H30 M630,0v150h10V0H630 M1700,0v10h-10v10h20V10h60V0H1700 M3430,20v130h10V20H3430z"/>
<path fill="#FFD5ED" d="M80,60v20H60v10h20v20h10V90h20V80H90V60H80 M180,60v20h-20v10h20v20h10V90h20V80h-20V60H180 M280,60v20h-20
	v10h20v20h10V90h20V80h-20V60H280 M380,60v20h-20v10h20v20h10V90h20V80h-20V60H380 M480,60v20h-20v10h20v20h10V90h20V80h-20V60H480
	 M580,60v20h-20v10h20v20h10V90h20V80h-20V60H580 M680,60v20h-20v10h20v20h10V90h20V80h-20V60H680 M780,60v20h-20v10h20v20h10V90h20
	V80h-20V60H780 M880,60v20h-20v10h20v20h10V90h20V80h-20V60H880 M980,60v20h-20v10h20v20h10V90h20V80h-20V60H980 M1080,60v20h-20v10
	h20v20h10V90h20V80h-20V60H1080 M1180,60v20h-20v10h20v20h10V90h20V80h-20V60H1180 M1280,60v20h-20v10h20v20h10V90h20V80h-20V60
	H1280 M1380,60v20h-20v10h20v20h10V90h20V80h-20V60H1380 M1480,60v20h-20v10h20v20h10V90h20V80h-20V60H1480 M1580,60v20h-20v10h20
	v20h10V90h20V80h-20V60H1580 M1680,60v20h-20v10h20v20h10V90h20V80h-20V60H1680 M1780,60v20h-20v10h20v20h10V90h20V80h-20V60H1780
	 M1880,60v20h-20v10h20v20h10V90h20V80h-20V60H1880 M1980,60v20h-20v10h20v20h10V90h20V80h-20V60H1980 M2080,60v20h-20v10h20v20h10
	V90h20V80h-20V60H2080 M2180,60v20h-20v10h20v20h10V90h20V80h-20V60H2180 M2280,60v20h-20v10h20v20h10V90h20V80h-20V60H2280
	 M2380,60v20h-20v10h20v20h10V90h20V80h-20V60H2380 M2480,60v20h-20v10h20v20h10V90h20V80h-20V60H2480 M2580,60v20h-20v10h20v20h10
	V90h20V80h-20V60H2580 M2680,60v20h-20v10h20v20h10V90h20V80h-20V60H2680 M2780,60v20h-20v10h20v20h10V90h20V80h-20V60H2780
	 M2880,60v20h-20v10h20v20h10V90h20V80h-20V60H2880 M2980,60v20h-20v10h20v20h10V90h20V80h-20V60H2980 M3080,60v20h-20v10h20v20h10
	V90h20V80h-20V60H3080 M3180,60v20h-20v10h20v20h10V90h20V80h-20V60H3180 M3280,60v20h-20v10h20v20h10V90h20V80h-20V60H3280
	 M3380,60v20h-20v10h20v20h10V90h20V80h-20V60H3380z"/>
<path fill="#FFF199" d="M80,80v10h10V80H80 M180,80v10h10V80H180 M280,80v10h10V80H280 M380,80v10h10V80H380 M480,80v10h10V80H480
	 M580,80v10h10V80H580 M680,80v10h10V80H680 M780,80v10h10V80H780 M880,80v10h10V80H880 M980,80v10h10V80H980 M1080,80v10h10V80
	H1080 M1180,80v10h10V80H1180 M1280,80v10h10V80H1280 M1380,80v10h10V80H1380 M1480,80v10h10V80H1480 M1580,80v10h10V80H1580
	 M1680,80v10h10V80H1680 M1780,80v10h10V80H1780 M1880,80v10h10V80H1880 M1980,80v10h10V80H1980 M2080,80v10h10V80H2080 M2180,80v10
	h10V80H2180 M2280,80v10h10V80H2280 M2380,80v10h10V80H2380 M2480,80v10h10V80H2480 M2580,80v10h10V80H2580 M2680,80v10h10V80H2680
	 M2780,80v10h10V80H2780 M2880,80v10h10V80H2880 M2980,80v10h10V80H2980 M3080,80v10h10V80H3080 M3180,80v10h10V80H3180 M3280,80v10
	h10V80H3280 M3380,80v10h10V80H3380z"/>
<path fill="#FFF197" d="M3380,110v130h10V110H3380z"/>
<path fill="#FFD5ED" d="M30,150v20h10v-20H30 M130,150v20h-20v10h20v20h10v-20h20v-10h-20v-20H130 M230,150v20h-20v10h20v20h10v-20
	h20v-10h-20v-20H230 M330,150v20h-20v10h20v20h10v-20h20v-10h-20v-20H330 M430,150v20h-20v10h20v20h10v-20h20v-10h-20v-20H430
	 M530,150v20h-20v10h20v20h10v-20h20v-10h-20v-20H530 M630,150v20h10v-20H630 M730,150v20h-20v10h20v20h10v-20h20v-10h-20v-20H730
	 M830,150v20h-20v10h20v20h10v-20h20v-10h-20v-20H830 M930,150v20h-20v10h20v20h10v-20h20v-10h-20v-20H930 M1030,150v20h-20v10h20
	v20h10v-20h20v-10h-20v-20H1030 M1130,150v20h-20v10h20v20h10v-20h20v-10h-20v-20H1130 M1230,150v20h-20v10h20v20h10v-20h20v-10h-20
	v-20H1230 M1330,150v20h-20v10h20v20h10v-20h20v-10h-20v-20H1330 M1430,150v20h-20v10h20v20h10v-20h20v-10h-20v-20H1430 M1530,150
	v20h-20v10h20v20h10v-20h20v-10h-20v-20H1530 M1630,150v20h-20v10h20v20h10v-20h20v-10h-20v-20H1630 M1730,150v20h-20v10h20v20h10
	v-20h20v-10h-20v-20H1730 M1830,150v20h-20v10h20v20h10v-20h20v-10h-20v-20H1830 M1930,150v20h-20v10h20v20h10v-20h20v-10h-20v-20
	H1930 M2030,150v20h-20v10h20v20h10v-20h20v-10h-20v-20H2030 M2130,150v20h-20v10h20v20h10v-20h20v-10h-20v-20H2130 M2230,150v20
	h-20v10h20v20h10v-20h20v-10h-20v-20H2230 M2330,150v20h-20v10h20v20h10v-20h20v-10h-20v-20H2330 M2430,150v20h-20v10h20v20h10v-20
	h20v-10h-20v-20H2430 M2530,150v20h-20v10h20v20h10v-20h20v-10h-20v-20H2530 M2630,150v20h-20v10h20v20h10v-20h20v-10h-20v-20H2630
	 M2730,150v20h-20v10h20v20h10v-20h20v-10h-20v-20H2730 M2830,150v20h-20v10h20v20h10v-20h20v-10h-20v-20H2830 M2930,150v20h-20v10
	h20v20h10v-20h20v-10h-20v-20H2930 M3030,150v20h-20v10h20v20h10v-20h20v-10h-20v-20H3030 M3130,150v20h-20v10h20v20h10v-20h20v-10
	h-20v-20H3130 M3230,150v20h-20v10h20v20h10v-20h20v-10h-20v-20H3230 M3330,150v20h-20v10h20v20h10v-20h20v-10h-20v-20H3330
	 M3430,150v20h10v-20H3430 M10,170v10h20v20h10v-20h20v-10H40v10H30v-10H10z"/>
<path fill="#FFF199" d="M130,170v10h10v-10H130 M230,170v10h10v-10H230 M330,170v10h10v-10H330 M430,170v10h10v-10H430 M530,170v10
	h10v-10H530z"/>
<path fill="#FFD5ED" d="M610,170v10h20v20h10v-20h20v-10h-20v10h-10v-10H610z"/>
<path fill="#FFF199" d="M730,170v10h10v-10H730 M830,170v10h10v-10H830 M930,170v10h10v-10H930 M1030,170v10h10v-10H1030 M1130,170
	v10h10v-10H1130 M1230,170v10h10v-10H1230 M1330,170v10h10v-10H1330 M1430,170v10h10v-10H1430 M1530,170v10h10v-10H1530 M1630,170
	v10h10v-10H1630 M1730,170v10h10v-10H1730 M1830,170v10h10v-10H1830 M1930,170v10h10v-10H1930 M2030,170v10h10v-10H2030 M2130,170
	v10h10v-10H2130 M2230,170v10h10v-10H2230 M2330,170v10h10v-10H2330 M2430,170v10h10v-10H2430 M2530,170v10h10v-10H2530 M2630,170
	v10h10v-10H2630 M2730,170v10h10v-10H2730 M2830,170v10h10v-10H2830 M2930,170v10h10v-10H2930 M3030,170v10h10v-10H3030 M3130,170
	v10h10v-10H3130 M3230,170v10h10v-10H3230 M3330,170v10h10v-10H3330z"/>
<path fill="#FFD5ED" d="M3410,170v10h20v-10H3410 M3430,180v20h10v-20H3430z"/>
<path fill="#FFF197" d="M30,200v130h10V200H30 M630,200v130h10V200H630 M3430,200v130h10V200H3430z"/>
<path fill="#FFD5ED" d="M80,240v20H60v10h20v20h10v-20h20v-10H90v-20H80 M180,240v20h-20v10h20v20h10v-20h20v-10h-20v-20H180
	 M280,240v20h-20v10h20v20h10v-20h20v-10h-20v-20H280 M380,240v20h-20v10h20v20h10v-20h20v-10h-20v-20H380 M480,240v20h-20v10h20v20
	h10v-20h20v-10h-20v-20H480 M580,240v20h-20v10h20v20h10v-20h20v-10h-20v-20H580 M680,240v20h-20v10h20v20h10v-20h20v-10h-20v-20
	H680 M780,240v20h-20v10h20v20h10v-20h20v-10h-20v-20H780 M880,240v20h-20v10h20v20h10v-20h20v-10h-20v-20H880 M980,240v20h-20v10
	h20v20h10v-20h20v-10h-20v-20H980 M1080,240v20h-20v10h20v20h10v-20h20v-10h-20v-20H1080 M1180,240v20h-20v10h20v20h10v-20h20v-10
	h-20v-20H1180 M1280,240v20h-20v10h20v20h10v-20h20v-10h-20v-20H1280 M1380,240v20h-20v10h20v20h10v-20h20v-10h-20v-20H1380
	 M1480,240v20h-20v10h20v20h10v-20h20v-10h-20v-20H1480 M1580,240v20h-20v10h20v20h10v-20h20v-10h-20v-20H1580 M1680,240v20h-20v10
	h20v20h10v-20h20v-10h-20v-20H1680 M1780,240v20h-20v10h20v20h10v-20h20v-10h-20v-20H1780 M1880,240v20h-20v10h20v20h10v-20h20v-10
	h-20v-20H1880 M1980,240v20h-20v10h20v20h10v-20h20v-10h-20v-20H1980 M2080,240v20h-20v10h20v20h10v-20h20v-10h-20v-20H2080
	 M2180,240v20h-20v10h20v20h10v-20h20v-10h-20v-20H2180 M2280,240v20h-20v10h20v20h10v-20h20v-10h-20v-20H2280 M2380,240v20h-20v10
	h20v20h10v-20h20v-10h-20v-20H2380 M2480,240v20h-20v10h20v20h10v-20h20v-10h-20v-20H2480 M2580,240v20h-20v10h20v20h10v-20h20v-10
	h-20v-20H2580 M2680,240v20h-20v10h20v20h10v-20h20v-10h-20v-20H2680 M2780,240v20h-20v10h20v20h10v-20h20v-10h-20v-20H2780
	 M2880,240v20h-20v10h20v20h10v-20h20v-10h-20v-20H2880 M2980,240v20h-20v10h20v20h10v-20h20v-10h-20v-20H2980 M3080,240v20h-20v10
	h20v20h10v-20h20v-10h-20v-20H3080 M3180,240v20h-20v10h20v20h10v-20h20v-10h-20v-20H3180 M3280,240v20h-20v10h20v20h10v-20h20v-10
	h-20v-20H3280 M3380,240v20h-20v10h20v20h10v-20h20v-10h-20v-20H3380z"/>
<path fill="#FFF199" d="M80,260v10h10v-10H80 M180,260v10h10v-10H180 M280,260v10h10v-10H280 M380,260v10h10v-10H380 M480,260v10h10
	v-10H480 M580,260v10h10v-10H580 M680,260v10h10v-10H680 M780,260v10h10v-10H780 M880,260v10h10v-10H880 M980,260v10h10v-10H980
	 M1080,260v10h10v-10H1080 M1180,260v10h10v-10H1180 M1280,260v10h10v-10H1280 M1380,260v10h10v-10H1380 M1480,260v10h10v-10H1480
	 M1580,260v10h10v-10H1580 M1680,260v10h10v-10H1680 M1780,260v10h10v-10H1780z"/>
<path fill="#FFF197" d="M1880,260v10h10v-10H1880z"/>
<path fill="#FFF199" d="M1980,260v10h10v-10H1980 M2080,260v10h10v-10H2080 M2180,260v10h10v-10H2180 M2280,260v10h10v-10H2280
	 M2380,260v10h10v-10H2380 M2480,260v10h10v-10H2480 M2580,260v10h10v-10H2580 M2680,260v10h10v-10H2680 M2780,260v10h10v-10H2780
	 M2880,260v10h10v-10H2880 M2980,260v10h10v-10H2980 M3080,260v10h10v-10H3080 M3180,260v10h10v-10H3180 M3280,260v10h10v-10H3280
	 M3380,260v10h10v-10H3380z"/>
<path fill="#FFF197" d="M3380,290v130h10V290H3380z"/>
<path fill="#FFD5ED" d="M30,330v20H10v10h20v20h10v-20h20v-10H40v-20H30 M130,330v20h-20v10h20v20h10v-20h20v-10h-20v-20H130
	 M230,330v20h-20v10h20v20h10v-20h20v-10h-20v-20H230 M330,330v20h-20v10h20v20h10v-20h20v-10h-20v-20H330 M430,330v20h-20v10h20v20
	h10v-20h20v-10h-20v-20H430 M530,330v20h-20v10h20v20h10v-20h20v-10h-20v-20H530 M630,330v20h-20v10h20v20h10v-20h20v-10h-20v-20
	H630 M730,330v20h-20v10h20v20h10v-20h20v-10h-20v-20H730 M830,330v20h-20v10h20v20h10v-20h20v-10h-20v-20H830 M930,330v20h-20v10
	h20v20h10v-20h20v-10h-20v-20H930 M1030,330v20h-20v10h20v20h10v-20h20v-10h-20v-20H1030 M1130,330v20h-20v10h20v20h10v-20h20v-10
	h-20v-20H1130 M1230,330v20h-20v10h20v20h10v-20h20v-10h-20v-20H1230 M1330,330v20h-20v10h20v20h10v-20h20v-10h-20v-20H1330
	 M1430,330v20h-20v10h20v20h10v-20h20v-10h-20v-20H1430 M1530,330v20h-20v10h20v20h10v-20h20v-10h-20v-20H1530 M1630,330v20h-20v10
	h20v20h10v-20h20v-10h-20v-20H1630 M1730,330v20h-20v10h20v20h10v-20h20v-10h-20v-20H1730 M1830,330v20h-20v10h20v20h10v-20h20v-10
	h-20v-20H1830 M1930,330v20h-20v10h20v20h10v-20h20v-10h-20v-20H1930 M2030,330v20h-20v10h20v20h10v-20h20v-10h-20v-20H2030
	 M2130,330v20h-20v10h20v20h10v-20h20v-10h-20v-20H2130 M2230,330v20h-20v10h20v20h10v-20h20v-10h-20v-20H2230 M2330,330v20h-20v10
	h20v20h10v-20h20v-10h-20v-20H2330 M2430,330v20h-10v10h10v20h10v-20h20v-10h-20v-20H2430 M2530,330v20h-20v10h20v20h10v-20h20v-10
	h-20v-20H2530 M2630,330v20h-20v10h20v20h10v-20h20v-10h-20v-20H2630 M2730,330v20h-20v10h20v20h10v-20h20v-10h-20v-20H2730
	 M2830,330v20h-20v10h20v20h10v-20h20v-10h-20v-20H2830 M2930,330v20h-20v10h20v20h10v-20h20v-10h-20v-20H2930 M3030,330v20h-20v10
	h20v20h10v-20h20v-10h-20v-20H3030 M3130,330v20h-20v10h20v20h10v-20h20v-10h-20v-20H3130 M3230,330v20h-20v10h20v20h10v-20h20v-10
	h-20v-20H3230 M3330,330v20h-20v10h20v20h10v-20h20v-10h-20v-20H3330 M3430,330v20h10v-20H3430z"/>
<path fill="#FFF199" d="M30,350v10h10v-10H30 M130,350v10h10v-10H130 M230,350v10h10v-10H230 M330,350v10h10v-10H330 M430,350v10h10
	v-10H430 M530,350v10h10v-10H530 M630,350v10h10v-10H630 M730,350v10h10v-10H730 M830,350v10h10v-10H830 M930,350v10h10v-10H930
	 M1030,350v10h10v-10H1030 M1130,350v10h10v-10H1130 M1230,350v10h10v-10H1230 M1330,350v10h10v-10H1330 M1430,350v10h10v-10H1430
	 M1530,350v10h10v-10H1530 M1630,350v10h10v-10H1630 M1730,350v10h10v-10H1730 M1830,350v10h10v-10H1830 M1930,350v10h10v-10H1930
	 M2030,350v10h10v-10H2030 M2130,350v10h10v-10H2130 M2230,350v10h10v-10H2230 M2330,350v10h10v-10H2330 M2430,350v10h10v-10H2430
	 M2530,350v10h10v-10H2530 M2630,350v10h10v-10H2630 M2730,350v10h10v-10H2730 M2830,350v10h10v-10H2830 M2930,350v10h10v-10H2930
	 M3030,350v10h10v-10H3030 M3130,350v10h10v-10H3130 M3230,350v10h10v-10H3230 M3330,350v10h10v-10H3330z"/>
<path fill="#FFD5ED" d="M3410,350v10h20v-10H3410 M3430,360v20h10v-20H3430z"/>
<path fill="#FFF197" d="M30,380v80H10v10h20v40h10v-40h30v-10H50v-10H40v-70H30 M630,380v80h-20v10h20v40h10v-40h30v-10h-20v-10h-10
	v-70H630z"/>
<path fill="#FFD5ED" d="M80,420v20H60v10h20v20h10v-20h20v-10H90v-20H80 M180,420v20h-20v10h20v20h10v-20h20v-10h-20v-20H180
	 M280,420v20h-20v10h20v20h10v-20h20v-10h-20v-20H280 M380,420v20h-20v10h20v20h10v-20h20v-10h-20v-20H380 M480,420v20h-20v10h20v20
	h10v-20h20v-10h-20v-20H480 M580,420v20h-20v10h20v20h10v-20h20v-10h-20v-20H580 M680,420v20h-20v10h20v20h10v-20h20v-10h-20v-20
	H680 M780,420v20h-20v10h20v20h10v-20h20v-10h-20v-20H780 M880,420v20h-20v10h20v20h10v-20h20v-10h-20v-20H880 M980,420v20h-20v10
	h20v20h10v-20h20v-10h-20v-20H980 M1080,420v20h-20v10h20v20h10v-20h20v-10h-20v-20H1080 M1180,420v20h-20v10h20v20h10v-20h20v-10
	h-20v-20H1180 M1280,420v20h-20v10h20v20h10v-20h20v-10h-20v-20H1280 M1380,420v20h-20v10h20v20h10v-20h20v-10h-20v-20H1380
	 M1480,420v20h-20v10h20v20h10v-20h20v-10h-20v-20H1480 M1580,420v20h-20v10h20v20h10v-20h20v-10h-20v-20H1580 M1680,420v20h-20v10
	h20v20h10v-20h20v-10h-20v-20H1680 M1780,420v20h-20v10h20v20h10v-20h20v-10h-20v-20H1780 M1880,420v20h-20v10h20v20h10v-20h20v-10
	h-20v-20H1880 M1980,420v20h-20v10h20v20h10v-20h20v-10h-20v-20H1980 M2080,420v20h-20v10h20v20h10v-20h20v-10h-20v-20H2080
	 M2180,420v20h-20v10h20v20h10v-20h20v-10h-20v-20H2180 M2280,420v20h-20v10h20v20h10v-20h20v-10h-20v-20H2280 M2380,420v20h-20v10
	h20v20h10v-20h20v-10h-20v-20H2380 M2480,420v20h-20v10h20v20h10v-20h20v-10h-20v-20H2480 M2580,420v20h-20v10h20v20h10v-20h20v-10
	h-20v-20H2580 M2680,420v20h-20v10h20v20h10v-20h20v-10h-20v-20H2680 M2780,420v20h-20v10h20v20h10v-20h20v-10h-20v-20H2780
	 M2880,420v20h-20v10h20v20h10v-20h20v-10h-20v-20H2880 M2980,420v20h-20v10h20v20h10v-20h20v-10h-20v-20H2980 M3080,420v20h-20v10
	h20v20h10v-20h20v-10h-20v-20H3080 M3180,420v20h-20v10h20v20h10v-20h20v-10h-20v-20H3180 M3280,420v20h-20v10h20v20h10v-20h20v-10
	h-20v-20H3280 M3380,420v20h-20v10h20v20h10v-20h20v-10h-20v-20H3380z"/>
<path fill="#FFF199" d="M80,440v10h10v-10H80 M180,440v10h10v-10H180 M280,440v10h10v-10H280 M380,440v10h10v-10H380 M480,440v10h10
	v-10H480 M580,440v10h10v-10H580 M680,440v10h10v-10H680 M780,440v10h10v-10H780 M880,440v10h10v-10H880 M980,440v10h10v-10H980
	 M1080,440v10h10v-10H1080 M1180,440v10h10v-10H1180 M1280,440v10h10v-10H1280 M1380,440v10h10v-10H1380 M1480,440v10h10v-10H1480
	 M1580,440v10h10v-10H1580 M1680,440v10h10v-10H1680 M1780,440v10h10v-10H1780 M1880,440v10h10v-10H1880 M1980,440v10h10v-10H1980
	 M2080,440v10h10v-10H2080 M2180,440v10h10v-10H2180 M2280,440v10h10v-10H2280 M2380,440v10h10v-10H2380 M2480,440v10h10v-10H2480
	 M2580,440v10h10v-10H2580 M2680,440v10h10v-10H2680 M2780,440v10h10v-10H2780 M2880,440v10h10v-10H2880 M2980,440v10h10v-10H2980
	 M3080,440v10h10v-10H3080 M3180,440v10h10v-10H3180 M3280,440v10h10v-10H3280 M3380,440v10h10v-10H3380z"/>
<path fill="#FFD5ED" d="M30,510v20H10v10h20v20h10v-20h20v-10H40v-20H30 M130,510v20h-20v10h20v20h10v-20h20v-10h-20v-20H130
	 M230,510v20h-20v10h20v20h10v-20h20v-10h-20v-20H230 M330,510v20h-20v10h20v20h10v-20h20v-10h-20v-20H330 M430,510v20h-20v10h20v20
	h10v-20h20v-10h-20v-20H430 M530,510v20h-20v10h20v20h10v-20h20v-10h-20v-20H530 M630,510v20h-20v10h20v20h10v-20h20v-10h-20v-20
	H630 M730,510v20h-20v10h20v20h10v-20h20v-10h-20v-20H730 M830,510v20h-20v10h20v20h10v-20h20v-10h-20v-20H830 M930,510v20h-20v10
	h20v20h10v-20h20v-10h-20v-20H930 M1030,510v20h-20v10h20v20h10v-20h20v-10h-20v-20H1030 M1130,510v20h-20v10h20v20h10v-20h20v-10
	h-20v-20H1130 M1230,510v20h-20v10h20v20h10v-20h20v-10h-20v-20H1230 M1330,510v20h-20v10h20v20h10v-20h20v-10h-20v-20H1330
	 M1430,510v20h-20v10h20v20h10v-20h20v-10h-20v-20H1430 M1530,510v20h-20v10h20v20h10v-20h20v-10h-20v-20H1530 M1630,510v20h-20v10
	h20v20h10v-20h20v-10h-20v-20H1630 M1730,510v20h-20v10h20v20h10v-20h20v-10h-20v-20H1730 M1830,510v20h-20v10h20v20h10v-20h20v-10
	h-20v-20H1830 M1930,510v20h-20v10h20v20h10v-20h20v-10h-20v-20H1930 M2030,510v20h-20v10h20v20h10v-20h20v-10h-20v-20H2030
	 M2130,510v20h-20v10h20v20h10v-20h20v-10h-20v-20H2130 M2230,510v20h-20v10h20v20h10v-20h20v-10h-20v-20H2230 M2330,510v20h-20v10
	h20v20h10v-20h20v-10h-20v-20H2330 M2430,510v20h-20v10h20v20h10v-20h20v-10h-20v-20H2430 M2530,510v20h-20v10h20v20h10v-20h20v-10
	h-20v-20H2530 M2630,510v20h-20v10h20v20h10v-20h20v-10h-20v-20H2630 M2730,510v20h-20v10h20v20h10v-20h20v-10h-20v-20H2730
	 M2830,510v20h-20v10h20v20h10v-20h20v-10h-20v-20H2830 M2930,510v20h-20v10h20v20h10v-20h20v-10h-20v-20H2930 M3030,510v20h-20v10
	h20v20h10v-20h20v-10h-20v-20H3030 M3130,510v20h-20v10h20v20h10v-20h20v-10h-20v-20H3130 M3230,510v20h-20v10h20v20h10v-20h20v-10
	h-20v-20H3230 M3330,510v20h-20v10h20v20h10v-20h20v-10h-20v-20H3330 M3430,510v20h10v-20H3430z"/>
<path fill="#FFF199" d="M30,530v10h10v-10H30 M130,530v10h10v-10H130 M230,530v10h10v-10H230 M330,530v10h10v-10H330 M430,530v10h10
	v-10H430 M530,530v10h10v-10H530 M630,530v10h10v-10H630 M730,530v10h10v-10H730 M830,530v10h10v-10H830 M930,530v10h10v-10H930
	 M1030,530v10h10v-10H1030 M1130,530v10h10v-10H1130 M1230,530v10h10v-10H1230 M1330,530v10h10v-10H1330 M1430,530v10h10v-10H1430
	 M1530,530v10h10v-10H1530 M1630,530v10h10v-10H1630 M1730,530v10h10v-10H1730 M1830,530v10h10v-10H1830 M1930,530v10h10v-10H1930
	 M2030,530v10h10v-10H2030 M2130,530v10h10v-10H2130 M2230,530v10h10v-10H2230 M2330,530v10h10v-10H2330 M2430,530v10h10v-10H2430
	 M2530,530v10h10v-10H2530 M2630,530v10h10v-10H2630 M2730,530v10h10v-10H2730 M2830,530v10h10v-10H2830 M2930,530v10h10v-10H2930
	 M3030,530v10h10v-10H3030 M3130,530v10h10v-10H3130 M3230,530v10h10v-10H3230 M3330,530v10h10v-10H3330z"/>
<path fill="#FFD5ED" d="M3410,530v10h20v-10H3410 M3430,540v20h10v-20H3430z"/>
<path fill="#FDF195" d="M390,560v10h-10v10h70v-10h-50v-10H390 M990,560v10h-10v10h70v-10h-50v-10H990z"/>
<path fill="#436325" d="M0,580v180h10V600h30v160h10V600h30v160h10V600h30v160h10V600h30v160h10V600h30v160h10V600h30v160h10V600h30
	v160h10V600h30v160h10V600h30v160h10V600h30v160h10V600h30v160h10V600h30v160h10V600h30v160h10V600h30v160h10V600h30v160h10V600h30
	v160h10V600h30v160h10V600h30v160h10V600h30v160h10V600h30v160h10V600h30v160h10V600h30v160h10V600h30v160h10V600h30v160h10V600h30
	v160h10V600h30v160h10V600h30v160h10V600h30v160h10V600h30v160h10V600h30v160h10V600h30v160h10V600h30v160h10V600h30v160h10V600h30
	v160h10V600h30v160h10V600h30v160h10V600h30v160h10V600h30v160h10V600h30v160h10V600h30v160h10V600h30v160h10V600h30v160h10V600h30
	v160h10V600h30v160h10V600h30v160h10V600h30v160h10V600h30v160h10V600h30v160h10V600h30v160h10V600h30v160h10V600h30v160h10V600h30
	v160h10V600h30v160h10V600h30v160h10V600h30v160h10V600h30v160h10V600h30v160h10V600h30v160h10V600h30v160h10V600h30v160h10V600h30
	v160h10V600h30v160h10V600h30v160h10V600h30v160h10V600h30v160h10V600h30v160h10V600h30v160h10V600h30v160h10V600h30v160h10V600h30
	v160h10V600h30v160h10V600h30v160h10V600h30v160h10V600h30v160h10V600h30v160h10V600h30v160h10V600h30v160h10V600h30v160h10V600h30
	v160h10V600h30v160h10V600h30v160h10V600h30v160h10V600h30v160h10V600h30v160h10V600h30v160h10V600h30v-20H0z"/>
<path fill="#7DC749" d="M10,600v160h30V600H10 M50,600v160h30V600H50 M90,600v160h30V600H90 M130,600v160h30V600H130 M170,600v160
	h30V600H170 M210,600v160h30V600H210 M250,600v160h30V600H250 M290,600v160h30V600H290 M330,600v160h30V600H330 M370,600v160h30V600
	H370 M410,600v160h30V600H410 M450,600v160h30V600H450 M490,600v160h30V600H490 M530,600v160h30V600H530 M570,600v160h30V600H570
	 M610,600v160h30V600H610 M650,600v160h30V600H650 M690,600v160h30V600H690 M730,600v160h30V600H730 M770,600v160h30V600H770
	 M810,600v160h30V600H810 M850,600v160h30V600H850 M890,600v160h30V600H890 M930,600v160h30V600H930 M970,600v160h30V600H970
	 M1010,600v160h30V600H1010 M1050,600v160h30V600H1050 M1090,600v160h30V600H1090 M1130,600v160h30V600H1130 M1170,600v160h30V600
	H1170 M1210,600v160h30V600H1210 M1250,600v160h30V600H1250 M1290,600v160h30V600H1290 M1330,600v160h30V600H1330 M1370,600v160h30
	V600H1370 M1410,600v160h30V600H1410 M1450,600v160h30V600H1450 M1490,600v160h30V600H1490 M1530,600v160h30V600H1530 M1570,600v160
	h30V600H1570 M1610,600v160h30V600H1610 M1650,600v160h30V600H1650 M1690,600v160h30V600H1690 M1730,600v160h30V600H1730 M1770,600
	v160h30V600H1770 M1810,600v160h30V600H1810 M1850,600v160h30V600H1850 M1890,600v160h30V600H1890 M1930,600v160h30V600H1930
	 M1970,600v160h30V600H1970 M2010,600v160h30V600H2010 M2050,600v160h30V600H2050 M2090,600v160h30V600H2090 M2130,600v160h30V600
	H2130 M2170,600v160h30V600H2170 M2210,600v160h30V600H2210 M2250,600v160h30V600H2250 M2290,600v160h30V600H2290 M2330,600v160h30
	V600H2330 M2370,600v160h30V600H2370 M2410,600v160h30V600H2410 M2450,600v160h30V600H2450 M2490,600v160h30V600H2490 M2530,600v160
	h30V600H2530 M2570,600v160h30V600H2570 M2610,600v160h30V600H2610 M2650,600v160h30V600H2650 M2690,600v160h30V600H2690 M2730,600
	v160h30V600H2730 M2770,600v160h30V600H2770 M2810,600v160h30V600H2810 M2850,600v160h30V600H2850 M2890,600v160h30V600H2890
	 M2930,600v160h30V600H2930 M2970,600v160h30V600H2970 M3010,600v160h30V600H3010 M3050,600v160h30V600H3050 M3090,600v160h30V600
	H3090 M3130,600v160h30V600H3130 M3170,600v160h30V600H3170 M3210,600v160h30V600H3210 M3250,600v160h30V600H3250 M3290,600v160h30
	V600H3290 M3330,600v160h30V600H3330 M3370,600v160h30V600H3370 M3410,600v160h30V600H3410z"/>
<path fill="#73492D" d="M0,760v50h3440v-50H0z"/>
</svg>
