<?xml version="1.0" standalone="yes"?>
<svg width="170" height="110">
<path style="fill:#210d01; stroke:none;" d="M0 0L0 110L170 110L170 0L0 0z"/>
<path style="fill:#818181; stroke:none;" d="M10 10L10 20L20 20L20 30L30 30L30 20L40 20L40 10L30 10L30 20L20 20L20 10L10 10z"/>
<path style="fill:#4b95cd; stroke:none;" d="M20 10L20 20L30 20L30 10L20 10M40 10L40 20L30 20L30 30L20 30L20 20L10 20L10 80L30 80L30 70L20 70L20 60L40 60L40 70L80 70L80 60L40 60L40 40L50 40L50 30L60 30L60 20L70 20L70 10L40 10z"/>
<path style="fill:#010101; stroke:none;" d="M70 10L70 20L60 20L60 30L50 30L50 40L40 40L40 60L90 60L90 10L70 10z"/>
<path style="fill:#4b95cd; stroke:none;" d="M90 10L90 70L130 70L130 60L150 60L150 70L140 70L140 80L160 80L160 30L140 30L140 10L90 10z"/>
<path style="fill:#e1bd31; stroke:none;" d="M140 10L140 30L160 30L160 10L140 10z"/>
<path style="fill:#ffffff; stroke:none;" d="M70 20L70 30L60 30L60 40L50 40L50 50L80 50L80 20L70 20z"/>
<path style="fill:#818181; stroke:none;" d="M100 30L100 40L110 40L110 50L120 50L120 40L130 40L130 30L120 30L120 40L110 40L110 30L100 30z"/>
<path style="fill:#873701; stroke:none;" d="M20 60L20 70L30 70L30 80L40 80L40 90L130 90L130 80L140 80L140 70L150 70L150 60L130 60L130 70L90 70L90 60L80 60L80 70L40 70L40 60L20 60z"/>
<path style="fill:#012d89; stroke:none;" d="M10 80L10 100L160 100L160 80L130 80L130 90L40 90L40 80L10 80z"/>
</svg>
